<?xml version="1.0" encoding="UTF-8"?>
<svg version="1.1" xmlns="http://www.w3.org/2000/svg" width="512" height="512">
<path d="M0 0 C1.35753389 0.49834063 2.71542551 0.99570825 4.07373047 1.49194336 C5.4231164 2.02059457 6.77088431 2.55339039 8.1171875 3.08984375 C9.24666306 3.53374702 9.24666306 3.53374702 10.3989563 3.98661804 C12.03208703 4.62876135 13.6645444 5.27261933 15.29638672 5.91802979 C19.85803014 7.72150285 24.42541555 9.51034356 28.9921875 11.30078125 C29.96331482 11.68184021 30.93444214 12.06289917 31.93499756 12.45550537 C43.26957754 16.89840157 54.63449216 21.26197839 66 25.625 C70.43369101 27.32787184 74.86725034 29.03108636 79.30078125 30.734375 C80.42020615 31.16439316 81.53963104 31.59441132 82.69297791 32.03746033 C95.52968904 36.96982122 108.35883111 41.92176757 121.1875 46.875 C122.95308258 47.55663712 122.95308258 47.55663712 124.7543335 48.25204468 C131.9508636 51.03041297 139.14724167 53.80917482 146.34356689 56.58807373 C156.2242482 60.4034843 166.10515523 64.21830989 175.98623657 68.03268433 C179.57972184 69.42001948 183.1730477 70.80776688 186.76635742 72.19555664 C197.57637544 76.36964372 208.38900562 80.53657615 219.2109375 84.6796875 C221.06820101 85.39134595 222.92546027 86.10301548 224.78271484 86.81469727 C228.16991215 88.11248912 231.55841754 89.40678105 234.94775391 90.69897461 C236.42354905 91.26403886 237.89930077 91.82921656 239.375 92.39453125 C240.04171722 92.64753998 240.70843445 92.90054871 241.39535522 93.16122437 C245.88634466 94.88634466 245.88634466 94.88634466 247 96 C247.07244053 98.01964199 247.08377188 100.04167124 247.0625 102.0625 C247.05347656 103.16722656 247.04445313 104.27195312 247.03515625 105.41015625 C247.01775391 106.69212891 247.01775391 106.69212891 247 108 C225.76418857 116.32527645 204.51155205 124.6067734 183.2192688 132.78668213 C181.11309281 133.59620007 179.00735964 134.40687107 176.90206909 135.21868896 C173.94769962 136.35746071 170.99168779 137.49185545 168.03515625 138.625 C167.14744537 138.96798126 166.2597345 139.31096252 165.34512329 139.66433716 C164.53521942 139.97362152 163.72531555 140.28290588 162.89086914 140.6015625 C161.83060265 141.00882568 161.83060265 141.00882568 160.74891663 141.42431641 C159 142 159 142 157 142 C157.02273486 146.43864621 157.09995607 150.8746961 157.1875 155.3125 C157.19330078 156.57513672 157.19910156 157.83777344 157.20507812 159.13867188 C157.23408203 160.34716797 157.26308594 161.55566406 157.29296875 162.80078125 C157.3086792 163.91622314 157.32438965 165.03166504 157.34057617 166.1809082 C157.71750418 169.19837604 157.71750418 169.19837604 160.3996582 170.69604492 C161.257771 171.1263501 162.11588379 171.55665527 163 172 C166.65453533 176.83979003 167.63807547 180.57343904 167.3984375 186.62890625 C166.64681732 191.10178323 164.11030349 193.88969651 161 197 C160.53837573 199.43252661 160.53837573 199.43252661 160.375 202.125 C160.30023438 203.03507813 160.22546875 203.94515625 160.1484375 204.8828125 C160.09945313 205.58148438 160.05046875 206.28015625 160 207 C160.61617188 207.24516357 161.23234375 207.49032715 161.8671875 207.74291992 C165.9543823 210.15191329 166.78927389 214.61990102 168 219 C168.91519921 224.37322038 169.47478937 229.76420936 170 235.1875 C171.32484459 254.18293585 171.32484459 254.18293585 179 271 C179.57889994 274.40907745 179.66001886 276.76278818 178.00390625 279.8671875 C173.13035241 286.30083081 165.77717237 288.80440484 158 290 C155.73004581 290.06652855 153.45831305 290.08543751 151.1875 290.0625 C150.02605469 290.05347656 148.86460937 290.04445313 147.66796875 290.03515625 C146.34732422 290.01775391 146.34732422 290.01775391 145 290 C145.0721875 290.79019531 145.144375 291.58039063 145.21875 292.39453125 C148.97137745 337.99937873 138.29511166 383.27236846 108.43847656 418.86132812 C105.08332208 422.69879923 101.56623222 426.35905621 98 430 C97.24203125 430.80824219 96.4840625 431.61648438 95.703125 432.44921875 C67.82187127 461.60242749 25.88592987 477.8023807 -14 479 C-14.84304687 479.03996094 -15.68609375 479.07992188 -16.5546875 479.12109375 C-61.19889227 480.30326117 -103.17780987 462.1634734 -135.3359375 431.87890625 C-165.89995599 402.52217981 -183.92812849 361.23042549 -185.19140625 318.8828125 C-185.79762386 283.58204433 -176.89280411 241.39759658 -152.43359375 214.26220703 C-151.89863281 213.71290527 -151.36367187 213.16360352 -150.8125 212.59765625 C-150.29147705 212.05197998 -149.7704541 211.50630371 -149.23364258 210.9440918 C-147.7828906 209.47180647 -146.27385125 208.05760771 -144.76171875 206.6484375 C-143.02605492 204.19997156 -142.97699791 203.17499568 -143.37475586 200.14892578 C-143.94999711 197.78805764 -144.5447955 195.43190923 -145.15405273 193.07958984 C-146.90773059 185.59681779 -146.3090413 177.7584052 -146.1875 170.125 C-146.1724075 168.45443931 -146.15872727 166.78386525 -146.14648438 165.11328125 C-146.11388235 161.075182 -146.06236023 157.03774479 -146 153 C-146.72519836 152.87088226 -147.45039673 152.74176453 -148.1975708 152.60873413 C-150.88158346 152.02572204 -153.27711783 151.24194986 -155.83886719 150.26025391 C-156.78322128 149.90054001 -157.72757538 149.54082611 -158.70054626 149.17021179 C-159.72233475 148.77630753 -160.74412323 148.38240326 -161.796875 147.9765625 C-163.41953026 147.35627922 -163.41953026 147.35627922 -165.07496643 146.72346497 C-168.63485724 145.36130836 -172.19246352 143.99329238 -175.75 142.625 C-178.21630161 141.67953835 -180.68269258 140.73430975 -183.14916992 139.78930664 C-203.86541718 131.84738621 -224.55828953 123.8444027 -245.23828125 115.80859375 C-246.50678673 115.31610893 -246.50678673 115.31610893 -247.80091858 114.81367493 C-253.5483247 112.57775539 -259.27677341 110.29712064 -265 108 C-265 104.04 -265 100.08 -265 96 C-253.86646846 91.27129232 -242.59423745 86.922633 -231.3125 82.5625 C-229.14904953 81.72511707 -226.98563905 80.88763081 -224.82226562 80.05004883 C-217.88253074 77.36405723 -210.94142984 74.68160783 -204 72 C-202.85190857 71.55644165 -201.70381714 71.1128833 -200.52093506 70.65588379 C-186.31290645 65.1670951 -172.10293956 59.68333511 -157.89213562 54.20173645 C-149.50065195 50.96483781 -141.109547 47.72695948 -132.71875 44.48828125 C-131.54355804 44.03468231 -130.36836609 43.58108337 -129.15756226 43.11373901 C-124.42966982 41.28884382 -119.70179565 39.46390132 -114.97393799 37.63891602 C-102.79739191 32.93870044 -90.62065704 28.2389775 -78.44268799 23.54244995 C-73.94600346 21.80826194 -69.44945997 20.07370835 -64.95294571 18.3390789 C-61.91267652 17.1662599 -58.87230651 15.9937034 -55.83178711 14.8215332 C-53.55921538 13.94540951 -51.28689153 13.06864257 -49.01483154 12.19119263 C-46.83565081 11.35140028 -44.65505209 10.51527697 -42.47296143 9.68307495 C-37.13481113 7.63961937 -31.84665844 5.5260589 -26.59863281 3.26025391 C-25.56775543 2.82594559 -24.53687805 2.39163727 -23.47476196 1.94416809 C-21.54348153 1.12714083 -19.6219022 0.28658662 -17.71347046 -0.58247375 C-10.85403175 -3.44801372 -6.76728647 -2.83222822 0 0 Z M135.875 150 C135.12089844 150.28617188 134.36679687 150.57234375 133.58984375 150.8671875 C131.72544427 151.5751873 129.86257526 152.28721493 128 153 C127.98018066 154.03817871 127.96036133 155.07635742 127.93994141 156.14599609 C127.86318772 160.04140241 127.77458527 163.93646864 127.68261719 167.83154297 C127.64461286 169.50920846 127.60971328 171.18694754 127.578125 172.86474609 C127.14279647 195.70588965 127.14279647 195.70588965 122.125 205.3125 C121.63257813 206.27800781 121.14015625 207.24351562 120.6328125 208.23828125 C118.96862773 211.05306266 117.10313112 213.50082471 115 216 C116.45395672 220.01498707 118.39795604 223.40150262 120.6875 227 C124.77901612 233.50690977 128.4342981 240.19173794 132 247 C132.33 247 132.66 247 133 247 C133.10546143 246.09233887 133.21092285 245.18467773 133.31958008 244.24951172 C133.71882661 240.86014047 134.12814142 237.47229476 134.54418945 234.08496094 C134.72170054 232.62287693 134.89526646 231.16030802 135.06469727 229.69726562 C135.30993011 227.58581802 135.56962934 225.4765619 135.83203125 223.3671875 C135.98389893 222.09987793 136.1357666 220.83256836 136.29223633 219.52685547 C137.15579342 215.22366617 138.42417315 211.49777882 141.65625 208.42578125 C144.0722761 205.86226519 143.51660129 202.85741105 143.43359375 199.5078125 C142.74409972 195.51992809 140.82617867 193.82617867 138 191 C136.33973539 186.01920617 136.40096575 181.69726371 138.125 176.8125 C140 174 140 174 143.09375 172.03125 C145.29647263 170.24241475 145.9295493 169.35588537 146.48779297 166.53588867 C146.59054036 163.56618244 146.52309837 160.65516341 146.375 157.6875 C146.34792969 156.66076172 146.32085937 155.63402344 146.29296875 154.57617188 C146.22243254 152.04862424 146.12393429 149.52539957 146 147 C142.44157074 147 139.16727176 148.73767819 135.875 150 Z " fill="#484F58" transform="translate(265,18)"/>
<path d="M0 0 C4.55345858 1.00014692 8.66468521 2.51388685 12.97851562 4.25561523 C14.30330681 4.77930191 14.30330681 4.77930191 15.65486145 5.31356812 C17.56608934 6.06985717 19.47598468 6.82952068 21.38467407 7.5921936 C26.54920577 9.65549512 31.72356546 11.6939235 36.89648438 13.73608398 C37.96722702 14.15958633 39.03796967 14.58308868 40.14115906 15.01942444 C50.47584377 19.10154099 60.84968899 23.07819473 71.23260498 27.03570557 C86.26635943 32.76625471 101.285311 38.53183293 116.25976562 44.41577148 C116.96565826 44.69216461 117.6715509 44.96855774 118.39883423 45.25332642 C120.34060501 46.01423421 122.28091726 46.7787264 124.22070312 47.54467773 C125.29884277 47.96950439 126.37698242 48.39433105 127.48779297 48.83203125 C129.88476562 49.85327148 129.88476562 49.85327148 130.88476562 50.85327148 C131.83368698 56.3909054 131.94659239 62.02569644 132.02539062 67.63061523 C132.05439453 69.38921875 132.05439453 69.38921875 132.08398438 71.18334961 C132.11822103 73.61546862 132.13609659 76.047866 132.13867188 78.48022461 C132.16316406 79.64360352 132.18765625 80.80698242 132.21289062 82.00561523 C132.22690918 83.58330688 132.22690918 83.58330688 132.24121094 85.19287109 C132.62532293 88.06578631 132.62532293 88.06578631 135.28222656 89.52734375 C136.14106445 89.9648999 136.99990234 90.40245605 137.88476562 90.85327148 C141.53930095 95.69306151 142.5228411 99.42671053 142.28320312 105.48217773 C141.53158294 109.95505471 138.99506911 112.74296799 135.88476562 115.85327148 C135.42314135 118.2857981 135.42314135 118.2857981 135.25976562 120.97827148 C135.185 121.88834961 135.11023438 122.79842773 135.03320312 123.73608398 C134.98421875 124.43475586 134.93523437 125.13342773 134.88476562 125.85327148 C135.5009375 126.09843506 136.11710937 126.34359863 136.75195312 126.59619141 C140.83914792 129.00518477 141.67403952 133.47317251 142.88476562 137.85327148 C143.79996484 143.22649187 144.35955499 148.61748084 144.88476562 154.04077148 C146.20961022 173.03620733 146.20961022 173.03620733 153.88476562 189.85327148 C154.46366557 193.26234894 154.54478448 195.61605967 152.88867188 198.72045898 C148.01511804 205.1541023 140.661938 207.65767633 132.88476562 208.85327148 C130.61481144 208.91980004 128.34307868 208.93870899 126.07226562 208.91577148 C124.91082031 208.90674805 123.749375 208.89772461 122.55273438 208.88842773 C121.23208984 208.87102539 121.23208984 208.87102539 119.88476562 208.85327148 C119.95695312 209.6434668 120.02914063 210.43366211 120.10351562 211.24780273 C123.85614307 256.85265021 113.17987729 302.12563995 83.32324219 337.71459961 C79.9680877 341.55207072 76.45099784 345.2123277 72.88476562 348.85327148 C72.12679688 349.66151367 71.36882812 350.46975586 70.58789062 351.30249023 C42.70663689 380.45569897 0.77069549 396.65565218 -39.11523438 397.85327148 C-39.95828125 397.89323242 -40.80132812 397.93319336 -41.66992188 397.97436523 C-86.31412664 399.15653265 -128.29304425 381.01674488 -160.45117188 350.73217773 C-191.01519036 321.37545129 -209.04336286 280.08369697 -210.30664062 237.73608398 C-211.02145595 196.1115419 -197.88352358 155.74794467 -170.36523438 124.13452148 C-169.62273437 123.38170898 -168.88023437 122.62889648 -168.11523438 121.85327148 C-167.45523438 121.85327148 -166.79523438 121.85327148 -166.11523438 121.85327148 C-164.98790085 123.49816711 -163.93869834 125.1969014 -162.92773438 126.91577148 C-154.90597776 139.78674573 -142.51236144 148.12009005 -129.11523438 154.85327148 C-127.89899398 155.47418004 -126.68285412 156.09528554 -125.46679688 156.71655273 C-122.05755225 158.44841495 -118.63259482 160.14637217 -115.19921875 161.82983398 C-113.84964287 162.49260602 -112.50185786 163.15904243 -111.15625 163.82983398 C-90.98639554 173.86377574 -69.69505506 181.47109514 -48.11523438 187.85327148 C-46.87773437 188.22581055 -45.64023438 188.59834961 -44.36523438 188.98217773 C-33.27509388 192.0735544 -24.88941241 189.1077397 -14.11523438 185.85327148 C-12.96796875 185.52713867 -11.82070313 185.20100586 -10.63867188 184.86499023 C21.51335444 175.3983872 56.8799623 161.12399146 83.14257812 139.95483398 C85.36921996 138.24837628 87.329504 136.96584951 89.88476562 135.85327148 C96.83070656 144.80019541 101.76607553 154.79554879 106.88476562 164.85327148 C107.04295776 163.53721924 107.04295776 163.53721924 107.2043457 162.19458008 C107.60369646 158.91700028 108.01300085 155.64097637 108.42895508 152.36547852 C108.60641846 150.95190763 108.77998588 149.53784163 108.94946289 148.12329102 C109.19481691 146.08131239 109.45447471 144.04156886 109.71679688 142.00170898 C109.94459839 140.16358643 109.94459839 140.16358643 110.17700195 138.28833008 C111.05373118 134.03321444 112.34301186 130.3186648 115.54101562 127.27905273 C117.95704172 124.71553667 117.40136692 121.71068253 117.31835938 118.36108398 C116.62886534 114.37319957 114.7109443 112.67945016 111.88476562 109.85327148 C110.22450101 104.87247765 110.28573137 100.55053519 112.00976562 95.66577148 C113.88476562 92.85327148 113.88476562 92.85327148 116.95117188 90.88452148 C119.12313063 89.1159359 119.80750848 88.18515029 120.45019531 85.42431641 C120.66622376 82.45082432 120.71800761 79.52196087 120.69726562 76.54077148 C120.72178405 74.52380808 120.74907643 72.50687627 120.77929688 70.48999023 C120.78783691 69.5327002 120.79637695 68.57541016 120.80517578 67.58911133 C120.91091718 63.95433182 121.34795412 60.44776134 121.88476562 56.85327148 C121.15126892 56.72127853 120.41777222 56.58928558 119.66204834 56.45329285 C117.11905208 55.90388818 114.8695539 55.19014527 112.44824219 54.25292969 C111.15998535 53.75771065 111.15998535 53.75771065 109.84570312 53.25248718 C108.915 52.89000381 107.98429687 52.52752045 107.02539062 52.15405273 C106.03249023 51.77106522 105.03958984 51.3880777 104.01660156 50.9934845 C100.72119257 49.72133264 97.42800712 48.44352272 94.13476562 47.16577148 C91.82729921 46.27394249 89.51967933 45.38251046 87.21191406 44.49145508 C82.31947374 42.60169067 77.42790401 40.70969256 72.53710938 38.81567383 C61.60693632 34.58304154 50.6721759 30.36228884 39.73740768 26.1415453 C35.46596658 24.49265457 31.19526352 22.84186248 26.92480469 21.19042969 C15.26690941 16.68445357 3.60220954 12.20235686 -8.11523438 7.85327148 C-8.11523438 4.85327148 -8.11523438 4.85327148 -6.05273438 2.10327148 C-3.11523438 -0.14672852 -3.11523438 -0.14672852 0 0 Z " fill="#02C6DA" transform="translate(290.115234375,99.146728515625)"/>
<path d="M0 0 C29.04673737 10.88386714 58.07648559 21.80062931 86.95825195 33.11645508 C88.64402543 33.77690023 90.32981639 34.43730078 92.015625 35.09765625 C92.84394333 35.42212234 93.67226166 35.74658844 94.52568054 36.08088684 C103.54508091 39.61038977 112.58346716 43.09016182 121.625 46.5625 C122.42969727 46.87161316 123.23439453 47.18072632 124.06347656 47.49920654 C128.91163656 49.36135176 133.76030296 51.22217532 138.60913086 53.08258057 C160.92019065 61.64373496 183.21881589 70.2363576 205.5 78.875 C206.50818787 79.26578735 207.51637573 79.65657471 208.55511475 80.0592041 C210.53360242 80.82621667 212.51196684 81.59354725 214.49020386 82.36120605 C216.42132674 83.1101874 218.35290092 83.85800628 220.28494263 84.60461426 C225.32885057 86.5573987 230.35751432 88.54179241 235.37109375 90.57128906 C236.41342163 90.98959991 237.45574951 91.40791077 238.52966309 91.83889771 C240.52017411 92.63885697 242.50746007 93.44690558 244.49084473 94.26437378 C250.0950564 96.50692675 254.45075614 98.06031093 260.44677734 96.26904297 C261.2352002 95.93018066 262.02362305 95.59131836 262.8359375 95.2421875 C263.73699219 94.86320312 264.63804687 94.48421875 265.56640625 94.09375 C266.49324219 93.6915625 267.42007812 93.289375 268.375 92.875 C276.09561664 89.58057142 283.87457761 86.51276441 291.74169922 83.58935547 C296.04540521 81.98854374 300.33284767 80.34715705 304.6171875 78.6953125 C305.35616272 78.41054047 306.09513794 78.12576843 306.85650635 77.83236694 C308.39650261 77.23862923 309.93641797 76.64468165 311.47625732 76.05053711 C323.0680455 71.57793143 334.66503033 67.11975278 346.28125 62.7109375 C347.21188263 62.35750275 348.14251526 62.00406799 349.10134888 61.6399231 C353.58319827 59.9380905 358.06596424 58.23874551 362.55029297 56.54345703 C371.88332546 53.00645308 381.153943 49.35107985 390.36694336 45.51171875 C405.49813823 39.2156124 405.49813823 39.2156124 411 41 C411 43.64 411 46.28 411 49 C397.48275862 56 397.48275862 56 392 56 C392.01047363 57.03817871 392.02094727 58.07635742 392.03173828 59.14599609 C392.0682608 63.04114255 392.09101642 66.93627424 392.10986328 70.83154297 C392.11984803 72.50930334 392.13344057 74.18704664 392.15087891 75.86474609 C392.37729275 98.2264425 392.37729275 98.2264425 387.1875 108.25 C386.70667969 109.20390625 386.22585938 110.1578125 385.73046875 111.140625 C377.06824328 125.45382826 360.56818177 134.61658696 346 142 C344.98953613 142.51675293 343.97907227 143.03350586 342.93798828 143.56591797 C319.15344152 155.63902968 294.65763028 165.58303707 269 173 C267.83210938 173.34933594 266.66421875 173.69867188 265.4609375 174.05859375 C235.4598971 182.43357401 190.11856059 155.66565685 164 142 C162.97519531 141.46632813 161.95039063 140.93265625 160.89453125 140.3828125 C144.11676726 131.45009954 125.38576924 119.1750565 119.39794922 100.08007812 C117.25821671 91.34016632 117.78217595 82.30537401 117.875 73.375 C117.88505043 71.68620323 117.89417263 69.99740066 117.90234375 68.30859375 C117.92419261 64.20558406 117.95860846 60.10285718 118 56 C117.27480164 55.87088226 116.54960327 55.74176453 115.8024292 55.60873413 C113.11841654 55.02572204 110.72288217 54.24194986 108.16113281 53.26025391 C107.21677872 52.90054001 106.27242462 52.54082611 105.29945374 52.17021179 C104.27766525 51.77630753 103.25587677 51.38240326 102.203125 50.9765625 C101.12135483 50.56304031 100.03958466 50.14951813 98.92503357 49.72346497 C95.36514276 48.36130836 91.80753648 46.99329238 88.25 45.625 C85.78369839 44.67953835 83.31730742 43.73430975 80.85083008 42.78930664 C60.13458282 34.84738621 39.44171047 26.8444027 18.76171875 18.80859375 C17.91604843 18.48027054 17.07037811 18.15194733 16.19908142 17.81367493 C10.45175944 15.57778812 4.72220887 13.29936512 -1 11 C-1.09765625 3.28515625 -1.09765625 3.28515625 -1 1 C-0.67 0.67 -0.34 0.34 0 0 Z " fill="#30363D" transform="translate(1,115)"/>
<path d="M0 0 C4.55345858 1.00014692 8.66468521 2.51388685 12.97851562 4.25561523 C14.30330681 4.77930191 14.30330681 4.77930191 15.65486145 5.31356812 C17.56608934 6.06985717 19.47598468 6.82952068 21.38467407 7.5921936 C26.54920577 9.65549512 31.72356546 11.6939235 36.89648438 13.73608398 C37.96722702 14.15958633 39.03796967 14.58308868 40.14115906 15.01942444 C50.47584377 19.10154099 60.84968899 23.07819473 71.23260498 27.03570557 C86.26635943 32.76625471 101.285311 38.53183293 116.25976562 44.41577148 C116.96565826 44.69216461 117.6715509 44.96855774 118.39883423 45.25332642 C120.34060501 46.01423421 122.28091726 46.7787264 124.22070312 47.54467773 C125.29884277 47.96950439 126.37698242 48.39433105 127.48779297 48.83203125 C129.88476562 49.85327148 129.88476562 49.85327148 130.88476562 50.85327148 C131.83368698 56.3909054 131.94659239 62.02569644 132.02539062 67.63061523 C132.04472656 68.80301758 132.0640625 69.97541992 132.08398438 71.18334961 C132.11822103 73.61546862 132.13609659 76.047866 132.13867188 78.48022461 C132.16316406 79.64360352 132.18765625 80.80698242 132.21289062 82.00561523 C132.22690918 83.58330688 132.22690918 83.58330688 132.24121094 85.19287109 C132.62532293 88.06578631 132.62532293 88.06578631 135.28222656 89.52734375 C136.14106445 89.9648999 136.99990234 90.40245605 137.88476562 90.85327148 C141.53930095 95.69306151 142.5228411 99.42671053 142.28320312 105.48217773 C141.53158294 109.95505471 138.99506911 112.74296799 135.88476562 115.85327148 C135.42314135 118.2857981 135.42314135 118.2857981 135.25976562 120.97827148 C135.185 121.88834961 135.11023438 122.79842773 135.03320312 123.73608398 C134.95972656 124.7840918 134.95972656 124.7840918 134.88476562 125.85327148 C135.5009375 126.09843506 136.11710938 126.34359863 136.75195312 126.59619141 C140.83914792 129.00518477 141.67403952 133.47317251 142.88476562 137.85327148 C143.79996484 143.22649187 144.35955499 148.61748084 144.88476562 154.04077148 C146.20961022 173.03620733 146.20961022 173.03620733 153.88476562 189.85327148 C154.46366557 193.26234894 154.54478448 195.61605967 152.88867188 198.72045898 C147.98794485 205.18997398 140.67711352 207.58804959 132.88476562 208.85327148 C120.58062257 209.8486995 110.68412959 207.25989189 101.13476562 199.41577148 C99.52621603 197.40508449 98.825524 195.23652604 97.88476562 192.85327148 C97.22476563 192.52327148 96.56476563 192.19327148 95.88476562 191.85327148 C94.3717938 194.25622673 93.84810593 195.48667455 94.13476562 198.35327148 C94.76567288 200.82931605 94.76567288 200.82931605 96.00976562 202.72827148 C97.43931614 206.20003702 96.88977375 208.24706588 95.88476562 211.85327148 C93.12289395 216.17008432 90.03184181 219.91011996 86.07226562 223.16577148 C83.05067272 226.87801419 83.07552299 230.36389669 82.47851562 235.02514648 C81.62210756 239.10435333 80.24834517 240.4987658 76.88476562 242.85327148 C76.22476563 242.85327148 75.56476563 242.85327148 74.88476562 242.85327148 C74.22476563 241.86327148 73.56476563 240.87327148 72.88476562 239.85327148 C71.89476562 239.52327148 70.90476562 239.19327148 69.88476562 238.85327148 C70.79257658 241.9258624 71.55106215 244.41689002 73.50976562 246.97827148 C74.88476562 248.85327148 74.88476562 248.85327148 74.88476562 252.85327148 C71.46321085 251.38689087 69.11992686 249.85917797 66.88476562 246.85327148 C66.45327693 244.57853013 66.26114552 242.38426606 66.15820312 240.07202148 C65.85228958 237.58975156 65.1835189 235.98101621 63.88476562 233.85327148 C63.22476563 233.39952148 62.56476563 232.94577148 61.88476562 232.47827148 C59.88476562 230.85327148 59.88476562 230.85327148 58.88476562 227.72827148 C58.20814938 224.76413874 58.20814938 224.76413874 56.00976562 223.79077148 C53.0630226 223.8774404 51.9492903 224.78874681 49.88476562 226.85327148 C49.08852741 228.94742952 49.08852741 228.94742952 48.88476562 230.85327148 C47.89476562 230.85327148 46.90476562 230.85327148 45.88476562 230.85327148 C45.51351562 231.81233398 45.51351562 231.81233398 45.13476562 232.79077148 C43.47664991 236.853155 41.68120722 240.85052055 39.88476562 244.85327148 C36.88476562 243.85327148 36.88476562 243.85327148 35.89257812 241.91967773 C35.60125 241.09338867 35.30992187 240.26709961 35.00976562 239.41577148 C32.99420541 234.02549933 30.60340137 228.9240811 27.88476562 223.85327148 C27.46710938 222.94834961 27.04945313 222.04342773 26.61914062 221.11108398 C25.04109748 218.56817943 25.04109748 218.56817943 21.96679688 218.14624023 C20.88785156 218.11143555 19.80890625 218.07663086 18.69726562 218.04077148 C17.61058594 217.99307617 16.52390625 217.94538086 15.40429688 217.89624023 C14.57285156 217.88206055 13.74140625 217.86788086 12.88476562 217.85327148 C13.19414062 219.18358398 13.19414062 219.18358398 13.50976562 220.54077148 C13.92716534 224.22780227 13.79379354 225.69922536 11.88476562 228.85327148 C9.13476562 230.97827148 9.13476562 230.97827148 5.88476562 232.85327148 C4.89476562 233.43077148 3.90476562 234.00827148 2.88476562 234.60327148 C-2.47887074 236.83811997 -2.47887074 236.83811997 -6.11523438 235.85327148 C-8.50278526 232.71439339 -10.28670129 229.33760976 -12.11523438 225.85327148 C-12.44523437 225.52327148 -12.77523437 225.19327148 -13.11523438 224.85327148 C-12.13849333 226.83363635 -11.15877455 228.81253282 -10.17773438 230.79077148 C-9.35982422 232.44399414 -9.35982422 232.44399414 -8.52539062 234.13061523 C-7.36818459 236.70121562 -7.36818459 236.70121562 -6.11523438 237.85327148 C-4.79523438 237.85327148 -3.47523438 237.85327148 -2.11523438 237.85327148 C-0.79523438 237.85327148 0.52476562 237.85327148 1.88476562 237.85327148 C2.88476562 238.85327148 2.88476562 238.85327148 2.88476562 242.22827148 C1.96767848 249.01471633 -2.58480312 255.22551595 -7.24804688 260.06811523 C-9.93823704 264.08088843 -10.161372 267.99437215 -10.67773438 272.72827148 C-11.39812757 279.02125466 -12.36480255 284.12845409 -15.11523438 289.85327148 C-16.10787221 292.43704939 -17.08616385 295.02526558 -18.05273438 297.61889648 C-19.14425746 299.91430533 -20.30812987 301.10914917 -22.11523438 302.85327148 C-22.54835938 303.92577148 -22.98148437 304.99827148 -23.42773438 306.10327148 C-25.21251229 310.37399007 -27.27291892 314.13495288 -31.11523438 316.85327148 C-34.6260089 317.71182538 -37.60693226 317.73034701 -41.11523438 316.85327148 C-43.05273438 314.79077148 -43.05273438 314.79077148 -44.11523438 311.85327148 C-44.63085938 310.78077148 -45.14648438 309.70827148 -45.67773438 308.60327148 C-47.11652053 305.17116702 -47.89630527 301.71314506 -48.58789062 298.06420898 C-49.05332447 295.78775779 -49.05332447 295.78775779 -50.17773438 293.56420898 C-51.39896956 290.03280392 -51.20414169 286.77759479 -51.05273438 283.10327148 C-50.93079311 277.65819573 -51.29484586 273.27212436 -53.38085938 268.22436523 C-55.00378714 262.98438037 -54.89039598 257.30366434 -55.11523438 251.85327148 C-56.69304687 251.66764648 -56.69304687 251.66764648 -58.30273438 251.47827148 C-61.57482209 250.94186366 -64.12059514 250.21447114 -67.11523438 248.85327148 C-67.11523438 249.51327148 -67.11523438 250.17327148 -67.11523438 250.85327148 C-70.64521421 252.6182614 -74.27116558 252.50128963 -78.11523438 251.85327148 C-82.39531486 249.63548599 -84.68080075 246.61002683 -87.05273438 242.47827148 C-89.22021628 235.40328338 -89.59122498 225.99283134 -87.09570312 218.99389648 C-85.88892261 216.82096239 -84.60105046 214.84328342 -83.11523438 212.85327148 C-80.81129902 209.22014265 -79.28983853 205.79223896 -77.95898438 201.72045898 C-76.91880677 199.41858447 -76.18208837 198.34018543 -74.11523438 196.85327148 C-70.85742188 196.12280273 -70.85742188 196.12280273 -66.99023438 195.66577148 C-66.32241943 195.58536621 -65.65460449 195.50496094 -64.96655273 195.42211914 C-59.97955259 194.85655196 -55.12540084 194.67747617 -50.11523438 194.85327148 C-49.90898437 195.59577148 -49.70273438 196.33827148 -49.49023438 197.10327148 C-47.65402326 200.77569371 -45.7649536 202.02841187 -42.11523438 203.85327148 C-40.10831203 203.56452625 -38.10868652 203.22375719 -36.11523438 202.85327148 C-33.65769296 202.78749147 -31.19854659 202.76757986 -28.74023438 202.79077148 C-27.495 202.79979492 -26.24976563 202.80881836 -24.96679688 202.81811523 C-23.55527344 202.83551758 -23.55527344 202.83551758 -22.11523438 202.85327148 C-21.45523438 201.53327148 -20.79523438 200.21327148 -20.11523438 198.85327148 C-20.74171875 198.79268555 -21.36820312 198.73209961 -22.01367188 198.66967773 C-22.8309375 198.58588867 -23.64820313 198.50209961 -24.49023438 198.41577148 C-25.70839844 198.29395508 -25.70839844 198.29395508 -26.95117188 198.16967773 C-29.11523438 197.85327148 -29.11523438 197.85327148 -31.11523438 196.85327148 C-31.44523437 197.51327148 -31.77523437 198.17327148 -32.11523438 198.85327148 C-32.77523437 198.85327148 -33.43523437 198.85327148 -34.11523438 198.85327148 C-34.44523437 198.19327148 -34.77523437 197.53327148 -35.11523438 196.85327148 C-36.10523438 196.52327148 -37.09523437 196.19327148 -38.11523438 195.85327148 C-38.61023438 193.37827148 -38.61023438 193.37827148 -39.11523438 190.85327148 C-38.13425781 190.89838867 -37.15328125 190.94350586 -36.14257812 190.98999023 C-31.74574901 190.98447351 -27.86839957 189.91154611 -23.67773438 188.66577148 C-22.8847998 188.43583496 -22.09186523 188.20589844 -21.27490234 187.96899414 C-19.64983714 187.49481394 -18.02611762 187.0159965 -16.40380859 186.5324707 C-14.39702024 185.93689942 -12.38355479 185.36392303 -10.36914062 184.79467773 C21.6797719 175.37664424 56.97606437 161.04652774 83.14257812 139.95483398 C85.36921996 138.24837628 87.329504 136.96584951 89.88476562 135.85327148 C96.83070656 144.80019541 101.76607553 154.79554879 106.88476562 164.85327148 C107.04295776 163.53721924 107.04295776 163.53721924 107.2043457 162.19458008 C107.60369646 158.91700028 108.01300085 155.64097637 108.42895508 152.36547852 C108.60641846 150.95190763 108.77998588 149.53784163 108.94946289 148.12329102 C109.19481691 146.08131239 109.45447471 144.04156886 109.71679688 142.00170898 C109.86866455 140.77629395 110.02053223 139.55087891 110.17700195 138.28833008 C111.05373118 134.03321444 112.34301186 130.3186648 115.54101562 127.27905273 C117.95704172 124.71553667 117.40136692 121.71068253 117.31835938 118.36108398 C116.62886534 114.37319957 114.7109443 112.67945016 111.88476562 109.85327148 C110.22450101 104.87247765 110.28573137 100.55053519 112.00976562 95.66577148 C113.88476562 92.85327148 113.88476562 92.85327148 116.95117188 90.88452148 C119.12313063 89.1159359 119.80750848 88.18515029 120.45019531 85.42431641 C120.66622376 82.45082432 120.71800761 79.52196087 120.69726562 76.54077148 C120.72178405 74.52380808 120.74907643 72.50687627 120.77929688 70.48999023 C120.78783691 69.5327002 120.79637695 68.57541016 120.80517578 67.58911133 C120.91091718 63.95433182 121.34795412 60.44776134 121.88476562 56.85327148 C121.15126892 56.72127853 120.41777222 56.58928558 119.66204834 56.45329285 C117.11905208 55.90388818 114.8695539 55.19014527 112.44824219 54.25292969 C111.5894043 53.92278366 110.73056641 53.59263763 109.84570312 53.25248718 C108.915 52.89000381 107.98429688 52.52752045 107.02539062 52.15405273 C106.03249023 51.77106522 105.03958984 51.3880777 104.01660156 50.9934845 C100.72119257 49.72133264 97.42800712 48.44352272 94.13476562 47.16577148 C91.82729921 46.27394249 89.51967933 45.38251046 87.21191406 44.49145508 C82.31947374 42.60169067 77.42790401 40.70969256 72.53710938 38.81567383 C61.60693632 34.58304154 50.6721759 30.36228884 39.73740768 26.1415453 C35.46596658 24.49265457 31.19526352 22.84186248 26.92480469 21.19042969 C15.26690941 16.68445357 3.60220954 12.20235686 -8.11523438 7.85327148 C-8.11523438 4.85327148 -8.11523438 4.85327148 -6.05273438 2.10327148 C-3.11523438 -0.14672852 -3.11523438 -0.14672852 0 0 Z " fill="#E3E7EB" transform="translate(290.115234375,99.146728515625)"/>
<path d="M0 0 C0.99 0.33 1.98 0.66 3 1 C3.45375 1.928125 3.9075 2.85625 4.375 3.8125 C8.09940767 11.11806889 15.59028849 13.58849445 23 16 C30.00089848 57.81786682 19.36942155 101.05913082 -4.8125 135.75 C-10.28983699 143.41914746 -16.41436729 150.27640012 -23 157 C-23.75796875 157.80824219 -24.5159375 158.61648438 -25.296875 159.44921875 C-53.17812873 188.60242749 -95.11407013 204.8023807 -135 206 C-135.84304687 206.03996094 -136.68609375 206.07992187 -137.5546875 206.12109375 C-162.39440223 206.77884321 -188.91475087 201.51410741 -211 190 C-211 189.67 -211 189.34 -211 189 C-209.03546875 188.96132813 -209.03546875 188.96132813 -207.03125 188.921875 C-164.65926967 187.74738514 -127.21927093 174.68740673 -95 147 C-94.372146 146.47075928 -93.74429199 145.94151855 -93.09741211 145.39624023 C-88.57654656 141.57354118 -84.77467559 137.56373206 -81 133 C-80.55994629 132.47760742 -80.11989258 131.95521484 -79.66650391 131.41699219 C-55.31322621 102.42771081 -43.64301894 69.41594746 -40 32 C-38.06640625 32.8125 -38.06640625 32.8125 -36 34 C-35.29618843 35.98723268 -34.6288189 37.98777953 -34 40 C-33.01 40.66 -32.02 41.32 -31 42 C-29.17228779 44.87819132 -28.84201516 47.01027172 -28.8125 50.375 C-28.56960478 53.3140322 -28.30293892 54.64071736 -26.3828125 56.91796875 C-24.64300343 58.3887712 -22.89560433 59.73791357 -21 61 C-22.87702327 56.10437307 -22.87702327 56.10437307 -26 52 C-26.125 49.375 -26.125 49.375 -26 47 C-24.0625 47.3125 -24.0625 47.3125 -22 48 C-21.67 48.99 -21.34 49.98 -21 51 C-18.5006865 50.42793197 -18.5006865 50.42793197 -16 49 C-14.77697829 46.32720771 -14.77697829 46.32720771 -14.25 43.1875 C-14.02828125 42.14980469 -13.8065625 41.11210937 -13.578125 40.04296875 C-13.21578005 38.13576123 -12.89294086 36.22015868 -12.62890625 34.296875 C-11.86734908 31.51553577 -10.97859124 30.75506205 -8.6875 29.0625 C-4.23039594 25.47485155 -1.56800085 22.1205365 -0.0625 16.5 C0.00974173 12.45446323 -1.12471761 10.51615448 -3 7 C-2.73202391 3.87361229 -1.79836077 2.69754116 0 0 Z " fill="#02BACC" transform="translate(386,291)"/>
<path d="M0 0 C8.45387599 2.23939436 16.49544299 5.47192309 24.59609985 8.72314453 C28.78260594 10.4026153 32.97490606 12.06744659 37.16796875 13.73046875 C38.04446579 14.07814301 38.92096283 14.42581726 39.82402039 14.7840271 C51.66670932 19.46774471 63.58223213 23.96212262 75.49804688 28.45581055 C84.16229884 31.73034914 92.76800927 35.10400847 101.3190918 38.66415405 C106.10228249 40.64976074 110.90277004 42.48141309 115.8125 44.125 C134.58857035 50.58857035 134.58857035 50.58857035 137 53 C137.09413687 55.05556661 137.11742998 57.11440181 137.11352539 59.17211914 C137.11367142 59.81600082 137.11381744 60.45988251 137.1139679 61.12327576 C137.11326885 63.26060303 137.10547691 65.39784413 137.09765625 67.53515625 C137.09579204 69.01346285 137.09436815 70.49177007 137.09336853 71.97007751 C137.08954359 75.86798802 137.07971352 79.76586149 137.06866455 83.66375732 C137.05844992 87.63846333 137.0538708 91.61317529 137.04882812 95.58789062 C137.03809122 103.391944 137.02101509 111.19596682 137 119 C137.66 119.33 138.32 119.66 139 120 C107.02117829 116.98168827 74.13216671 100.7192084 46 86 C44.97519531 85.46632813 43.95039063 84.93265625 42.89453125 84.3828125 C26.11676726 75.45009954 7.38576924 63.1750565 1.39794922 44.08007812 C-0.74178329 35.34016632 -0.21782405 26.30537401 -0.125 17.375 C-0.11494957 15.68620323 -0.10582737 13.99740066 -0.09765625 12.30859375 C-0.07580739 8.20558406 -0.04139154 4.10285718 0 0 Z " fill="#474F59" transform="translate(119,171)"/>
<path d="M0 0 C0.66 0 1.32 0 2 0 C3.12733353 1.64489562 4.17653603 3.34362992 5.1875 5.0625 C11.64865333 15.42947348 21.113916 23.5567669 32 29.1875 C35.51804409 31.31298497 37.0513177 33.41442457 39 37 C39 37.66 39 38.32 39 39 C39.66 39 40.32 39 41 39 C42.41000419 41.82000838 42.37608381 44.59357703 42.62109375 47.7109375 C43.02249448 50.13589449 43.79862685 51.8696298 45 54 C42.6875 54.625 42.6875 54.625 40 55 C38.515 54.01 38.515 54.01 37 53 C37.33 51.35 37.66 49.7 38 48 C36.35 48 34.7 48 33 48 C32.97421875 48.62648438 32.9484375 49.25296875 32.921875 49.8984375 C32.83679688 51.12433594 32.83679688 51.12433594 32.75 52.375 C32.70359375 53.18710937 32.6571875 53.99921875 32.609375 54.8359375 C32 57 32 57 30.11328125 58.2734375 C28 59 28 59 25.4375 59.25 C22.66959451 59.78781946 22.66959451 59.78781946 21.4375 62.9375 C20.963125 63.948125 20.48875 64.95875 20 66 C18.948125 66.495 18.948125 66.495 17.875 67 C16.946875 67.495 16.946875 67.495 16 68 C15.855625 68.928125 15.71125 69.85625 15.5625 70.8125 C14.82909509 74.96846118 13.04903883 76.16368481 10 79 C5.9529791 83.92205244 5.57687499 86.86468736 6 93 C5.01 93 4.02 93 3 93 C2.59136719 92.34515625 2.18273437 91.6903125 1.76171875 91.015625 C0.07265627 88.62767165 0.07265627 88.62767165 -3.35546875 88.609375 C-4.62003906 88.65578125 -5.88460937 88.7021875 -7.1875 88.75 C-8.45980469 88.78609375 -9.73210937 88.8221875 -11.04296875 88.859375 C-12.01878906 88.90578125 -12.99460937 88.9521875 -14 89 C-17.22193962 93.60823232 -17.22193962 93.60823232 -17.75 98.9375 C-17.5025 99.618125 -17.255 100.29875 -17 101 C-14.08517222 101.80967438 -12.53886783 102.21845993 -9.6875 101.0625 C-9.130625 100.711875 -8.57375 100.36125 -8 100 C-4.33305139 102.44463241 -4.32824291 103.93225609 -3 108 C-2.484375 108.45375 -1.96875 108.9075 -1.4375 109.375 C0.99199211 112.12138239 0.70679874 115.42294461 1 119 C5.02081918 119.27918939 5.02081918 119.27918939 9 119 C9.474375 118.34 9.94875 117.68 10.4375 117 C12 115 12 115 14.06640625 114.62890625 C20.40489522 114.45594588 20.40489522 114.45594588 22.59375 116.45703125 C23.0578125 116.96621094 23.521875 117.47539062 24 118 C24.99 118.37125 25.98 118.7425 27 119.125 C33.57004628 121.77263059 40.67659562 127.20275607 44.25 133.375 C47.21110537 137.81665805 51.5861727 138.62794018 56.5625 139.9375 C60.39881517 141.12327014 62.78472664 142.64736096 66 145 C65.77780643 151.88800052 64.23836434 155.60739769 60.4765625 161.3125 C58.82889767 164.31142434 58.1804047 166.96786004 57.5 170.3125 C56.26092258 176.09486131 54.6773929 177.58940101 50 181 C48.25429661 184.40663508 48.25429661 184.40663508 47 188 C45.6875 191.3125 45.6875 191.3125 44 194 C40.8125 195.375 40.8125 195.375 38 196 C38.103125 196.9075 38.20625 197.815 38.3125 198.75 C38 202 38 202 35.6875 204.125 C34.800625 204.74375 33.91375 205.3625 33 206 C29.77042017 209.36932127 29.54153969 212.16920619 29.3125 216.75 C29.24675781 217.92046875 29.18101562 219.0909375 29.11328125 220.296875 C29.07589844 221.18890625 29.03851563 222.0809375 29 223 C28.01 223.33 27.02 223.66 26 224 C26.99 227.63 27.98 231.26 29 235 C22.25 235.125 22.25 235.125 20 234 C16.14591498 225.46283809 13.08585133 215.21083404 15.5703125 205.8515625 C16.22592242 203.92031899 16.22592242 203.92031899 15 202 C14.90414869 200.35643193 14.87016489 198.70885358 14.875 197.0625 C14.87113281 195.74958984 14.87113281 195.74958984 14.8671875 194.41015625 C15 192 15 192 16 189 C17.25478825 176.11960225 17.25478825 176.11960225 12.5078125 164.6484375 C12.01023438 164.10445312 11.51265625 163.56046875 11 163 C6.41256742 157.49069102 4.4882564 154.20178185 4 147 C3.34 146.01 2.68 145.02 2 144 C2.2647335 139.96281408 2.76243171 136.69873026 4.0625 132.875 C5.07753088 129.76223864 5.154871 127.2522911 5 124 C3.88625 123.814375 3.88625 123.814375 2.75 123.625 C-1.29178156 122.70641328 -3.30593608 121.9022831 -5.875 118.5625 C-8.79229375 115.04458694 -12.0352342 113.83952291 -16.17578125 112.0703125 C-28.15847517 106.8744553 -28.15847517 106.8744553 -29.99609375 102.78125 C-30.52676068 101.17655382 -31.01638831 99.55749539 -31.45703125 97.92578125 C-31.82815807 96.00894611 -31.82815807 96.00894611 -33 95 C-33.495 95.99 -33.495 95.99 -34 97 C-37.40829947 95.58966919 -39.25436124 94.28221898 -41 91 C-40.88161819 88.01313577 -40.59567577 85.4157773 -40.0625 82.5 C-39.84533325 81.2461853 -39.84533325 81.2461853 -39.6237793 79.96704102 C-34.62493465 52.86617985 -23.11871928 28.49493323 -6 7 C-5.39671875 6.24203125 -4.7934375 5.4840625 -4.171875 4.703125 C-2.83923222 3.08584007 -1.42862546 1.53315903 0 0 Z " fill="#E2E7EB" transform="translate(122,221)"/>
<path d="M0 0 C4.55345858 1.00014692 8.66468521 2.51388685 12.97851562 4.25561523 C13.86170975 4.60473969 14.74490387 4.95386414 15.65486145 5.31356812 C17.56608934 6.06985717 19.47598468 6.82952068 21.38467407 7.5921936 C26.54920577 9.65549512 31.72356546 11.6939235 36.89648438 13.73608398 C38.50259834 14.37133751 38.50259834 14.37133751 40.14115906 15.01942444 C50.47584377 19.10154099 60.84968899 23.07819473 71.23260498 27.03570557 C86.26635943 32.76625471 101.285311 38.53183293 116.25976562 44.41577148 C116.96565826 44.69216461 117.6715509 44.96855774 118.39883423 45.25332642 C120.34060501 46.01423421 122.28091726 46.7787264 124.22070312 47.54467773 C125.29884277 47.96950439 126.37698242 48.39433105 127.48779297 48.83203125 C129.88476562 49.85327148 129.88476562 49.85327148 130.88476562 50.85327148 C131.83368698 56.3909054 131.94659239 62.02569644 132.02539062 67.63061523 C132.04472656 68.80301758 132.0640625 69.97541992 132.08398438 71.18334961 C132.11822103 73.61546862 132.13609659 76.047866 132.13867188 78.48022461 C132.16316406 79.64360352 132.18765625 80.80698242 132.21289062 82.00561523 C132.22690918 83.58330688 132.22690918 83.58330688 132.24121094 85.19287109 C132.62532293 88.06578631 132.62532293 88.06578631 135.28222656 89.52734375 C136.14106445 89.9648999 136.99990234 90.40245605 137.88476562 90.85327148 C141.53930095 95.69306151 142.5228411 99.42671053 142.28320312 105.48217773 C141.53158294 109.95505471 138.99506911 112.74296799 135.88476562 115.85327148 C135.42314135 118.2857981 135.42314135 118.2857981 135.25976562 120.97827148 C135.185 121.88834961 135.11023438 122.79842773 135.03320312 123.73608398 C134.95972656 124.7840918 134.95972656 124.7840918 134.88476562 125.85327148 C135.5009375 126.09843506 136.11710938 126.34359863 136.75195312 126.59619141 C140.83914792 129.00518477 141.67403952 133.47317251 142.88476562 137.85327148 C143.79996484 143.22649187 144.35955499 148.61748084 144.88476562 154.04077148 C146.20961022 173.03620733 146.20961022 173.03620733 153.88476562 189.85327148 C154.46366557 193.26234894 154.54478448 195.61605967 152.88867188 198.72045898 C147.98794485 205.18997398 140.67711352 207.58804959 132.88476562 208.85327148 C121.61880412 209.76470869 111.91506492 207.85175344 102.88476562 200.85327148 C102.26601563 200.44077148 101.64726562 200.02827148 101.00976562 199.60327148 C99.10760711 196.64435824 99.22764021 193.20976505 99.88476562 189.85327148 C100.34496094 189.25256836 100.80515625 188.65186523 101.27929688 188.03295898 C108.21003196 178.62334785 107.74855408 162.50085615 108.67138672 151.29321289 C108.97512737 147.82000462 109.3731545 144.37356205 109.82226562 140.91577148 C109.95503906 139.87549805 110.0878125 138.83522461 110.22460938 137.76342773 C111.14085524 133.72435573 112.49825503 130.17111056 115.54101562 127.27905273 C117.95704172 124.71553667 117.40136692 121.71068253 117.31835938 118.36108398 C116.62886534 114.37319957 114.7109443 112.67945016 111.88476562 109.85327148 C110.22450101 104.87247765 110.28573137 100.55053519 112.00976562 95.66577148 C113.88476562 92.85327148 113.88476562 92.85327148 116.95117188 90.88452148 C119.12313063 89.1159359 119.80750848 88.18515029 120.45019531 85.42431641 C120.66622376 82.45082432 120.71800761 79.52196087 120.69726562 76.54077148 C120.72178405 74.52380808 120.74907643 72.50687627 120.77929688 70.48999023 C120.78783691 69.5327002 120.79637695 68.57541016 120.80517578 67.58911133 C120.91091718 63.95433182 121.34795412 60.44776134 121.88476562 56.85327148 C121.15126892 56.72127853 120.41777222 56.58928558 119.66204834 56.45329285 C117.11905208 55.90388818 114.8695539 55.19014527 112.44824219 54.25292969 C111.5894043 53.92278366 110.73056641 53.59263763 109.84570312 53.25248718 C108.915 52.89000381 107.98429687 52.52752045 107.02539062 52.15405273 C106.03249023 51.77106522 105.03958984 51.3880777 104.01660156 50.9934845 C100.72119257 49.72133264 97.42800712 48.44352272 94.13476562 47.16577148 C91.82729921 46.27394249 89.51967933 45.38251046 87.21191406 44.49145508 C82.31947374 42.60169067 77.42790401 40.70969256 72.53710938 38.81567383 C61.60693632 34.58304154 50.6721759 30.36228884 39.73740768 26.1415453 C35.46596658 24.49265457 31.19526352 22.84186248 26.92480469 21.19042969 C15.26690941 16.68445357 3.60220954 12.20235686 -8.11523438 7.85327148 C-8.11523438 4.85327148 -8.11523438 4.85327148 -6.05273438 2.10327148 C-3.11523438 -0.14672852 -3.11523438 -0.14672852 0 0 Z " fill="#F2D67C" transform="translate(290.115234375,99.146728515625)"/>
<path d="M0 0 C4.44348803 1.48450616 6.11193459 4.8950336 8.3125 8.75 C8.69768799 9.41813721 9.08287598 10.08627441 9.47973633 10.7746582 C10.27284514 12.16288473 11.05983356 13.55462489 11.84082031 14.94970703 C12.93301275 16.88151666 14.06751289 18.78183839 15.2109375 20.68359375 C19.1480519 27.49467925 20.86395911 32.44143443 18.8828125 40.23046875 C18.59148437 41.14441406 18.30015625 42.05835938 18 43 C17.74992187 43.88300781 17.49984375 44.76601563 17.2421875 45.67578125 C15.4673913 51.5326087 15.4673913 51.5326087 13 54 C12.35232207 56.57061311 12.35232207 56.57061311 12 59 C10.68 58.01 9.36 57.02 8 56 C6.48702818 58.40295525 5.96334031 59.63340307 6.25 62.5 C6.88090726 64.97604456 6.88090726 64.97604456 8.125 66.875 C9.55455052 70.34676554 9.00500812 72.39379439 8 76 C5.23812832 80.31681283 2.14707618 84.05684847 -1.8125 87.3125 C-4.8340929 91.02474271 -4.80924264 94.5106252 -5.40625 99.171875 C-6.26265807 103.25108185 -7.63642045 104.64549432 -11 107 C-11.66 107 -12.32 107 -13 107 C-13.66 106.01 -14.32 105.02 -15 104 C-16.485 103.505 -16.485 103.505 -18 103 C-17.09218905 106.07259092 -16.33370347 108.56361853 -14.375 111.125 C-13 113 -13 113 -13 117 C-16.42155477 115.53361938 -18.76483876 114.00590649 -21 111 C-21.43148869 108.72525865 -21.6236201 106.53099458 -21.7265625 104.21875 C-22.03247605 101.73648007 -22.70124673 100.12774472 -24 98 C-24.66 97.54625 -25.32 97.0925 -26 96.625 C-28.67931006 94.44806057 -29.03090738 92.25338237 -30 89 C-30.66 88.34 -31.32 87.68 -32 87 C-32.23950195 84.78295898 -32.23950195 84.78295898 -32.23828125 81.99609375 C-32.25101074 80.95710938 -32.26374023 79.918125 -32.27685547 78.84765625 C-32.28861816 77.72230469 -32.30038086 76.59695313 -32.3125 75.4375 C-32.71313178 58.44502327 -35.8812336 42.18505187 -41 26 C-40.08057617 25.54898926 -40.08057617 25.54898926 -39.14257812 25.08886719 C-25.21224529 18.19663445 -11.11778766 11.11778766 0 0 Z " fill="#CBD4D6" transform="translate(378,235)"/>
<path d="M0 0 C1.23556641 0.01740234 1.23556641 0.01740234 2.49609375 0.03515625 C3.32238281 0.04417969 4.14867187 0.05320313 5 0.0625 C5.63808594 0.07410156 6.27617187 0.08570313 6.93359375 0.09765625 C7.79078423 3.1026526 8.09876322 5.86305613 8.19897461 8.98291016 C8.2324852 9.95136871 8.26599579 10.91982727 8.30052185 11.91763306 C8.3489901 13.48014297 8.3489901 13.48014297 8.3984375 15.07421875 C8.47700033 17.29427839 8.55578344 19.51433024 8.63476562 21.734375 C8.7540262 25.223053 8.87074326 28.71177795 8.9831543 32.20068359 C9.09357186 35.57548505 9.2141837 38.94980982 9.3359375 42.32421875 C9.3813694 43.86851059 9.3813694 43.86851059 9.42771912 45.44400024 C9.63763804 51.09736679 10.23072804 56.40975471 11.49879456 61.92733765 C12.12788217 65.06745512 12.13733827 67.90565871 11.93359375 71.09765625 C10.93359375 72.09765625 10.93359375 72.09765625 9.16772461 72.21118164 C8.41885986 72.20594482 7.66999512 72.20070801 6.8984375 72.1953125 C6.08955078 72.19208984 5.28066406 72.18886719 4.44726562 72.18554688 C3.59712891 72.17716797 2.74699219 72.16878906 1.87109375 72.16015625 C1.01708984 72.15564453 0.16308594 72.15113281 -0.71679688 72.14648438 C-2.83336288 72.13465998 -4.9498931 72.11672394 -7.06640625 72.09765625 C-7.17734233 65.44501325 -6.86158661 58.96314405 -6.19140625 52.34765625 C-4.95892567 39.43267968 -4.36144013 26.48898633 -3.76416016 13.53222656 C-3.70526863 12.31051254 -3.70526863 12.31051254 -3.64518738 11.06411743 C-3.57056747 9.51529709 -3.49987173 7.96628152 -3.43354797 6.41708374 C-3.12721673 0.14778907 -3.12721673 0.14778907 0 0 Z " fill="#F0CA67" transform="translate(412.06640625,229.90234375)"/>
<path d="M0 0 C0 3.63 0 7.26 0 11 C-21.23581143 19.32527645 -42.48844795 27.6067734 -63.7807312 35.78668213 C-65.88690719 36.59620007 -67.99264036 37.40687107 -70.09793091 38.21868896 C-73.05230038 39.35746071 -76.00831221 40.49185545 -78.96484375 41.625 C-79.85255463 41.96798126 -80.7402655 42.31096252 -81.65487671 42.66433716 C-82.46478058 42.97362152 -83.27468445 43.28290588 -84.10913086 43.6015625 C-84.81597519 43.87307129 -85.52281952 44.14458008 -86.25108337 44.42431641 C-88 45 -88 45 -90 45 C-90.1352403 43.39815374 -90.23210847 41.79303374 -90.3125 40.1875 C-90.37050781 39.29417969 -90.42851562 38.40085938 -90.48828125 37.48046875 C-90 35 -90 35 -87.80444336 33.48681641 C-85.11995496 32.06359587 -82.46087424 30.85812047 -79.640625 29.73046875 C-78.60550781 29.31603516 -77.57039063 28.90160156 -76.50390625 28.47460938 C-75.43011719 28.04986328 -74.35632813 27.62511719 -73.25 27.1875 C-72.22261719 26.77435547 -71.19523437 26.36121094 -70.13671875 25.93554688 C-64.10906834 23.53558055 -58.04486794 21.29330728 -51.91796875 19.1640625 C-43.04864163 16.07543968 -34.31781373 12.66434237 -25.59204102 9.19360352 C-23.01381026 8.16813407 -20.43381827 7.14719679 -17.85351562 6.12695312 C-16.20562906 5.47421099 -14.55783874 4.82122585 -12.91015625 4.16796875 C-12.14260513 3.86384567 -11.37505402 3.5597226 -10.58424377 3.24638367 C-2.42675832 0 -2.42675832 0 0 0 Z " fill="#30363D" transform="translate(512,115)"/>
<path d="M0 0 C0.50072021 0.20343018 1.00144043 0.40686035 1.51733398 0.61645508 C25.56638826 10.36094536 49.79610461 19.64901635 74 29 C75.43180343 29.55338529 76.86360682 30.1067707 78.29541016 30.66015625 C95.16978448 37.17840817 112.08092344 43.59888204 129 50 C129 51.32 129 52.64 129 54 C124.21100261 55.5828483 120.82079037 54.13914522 116.37109375 52.30078125 C115.2294426 51.84777649 115.2294426 51.84777649 114.06472778 51.38562012 C112.39908241 50.72308762 110.73575655 50.05470141 109.07449341 49.3812561 C105.44816085 47.91152734 101.81071298 46.47027019 98.1738739 45.02677917 C96.21472579 44.24879073 94.25617238 43.46930327 92.298172 42.68843079 C81.53406232 38.39930164 70.7199508 34.24214631 59.90127563 30.09298706 C56.57325179 28.81662353 53.245892 27.53854303 49.91870117 26.26000977 C32.28699463 19.48614071 14.647297 12.73314565 -3 6 C-3 3 -3 3 -1.5 1.3125 C-0.7575 0.6628125 -0.7575 0.6628125 0 0 Z " fill="#EBCA6E" transform="translate(285,101)"/>
<path d="M0 0 C-0.92760741 8.20089281 -3.80534102 15.44616679 -7 23 C-7.33064453 23.7852002 -7.66128906 24.57040039 -8.00195312 25.37939453 C-13.9196371 39.00389403 -13.9196371 39.00389403 -18.765625 41.32421875 C-21.39185409 41.61310395 -23.43661464 41.62050201 -26 41 C-29.17073689 37.82926311 -29.184359 30.44514894 -29.375 26.1875 C-29.30404592 23.03823041 -29.22808771 22.28314337 -27.1875 19.75 C-26.465625 19.1725 -25.74375 18.595 -25 18 C-24.505 17.154375 -24.01 16.30875 -23.5 15.4375 C-21.40845188 12.0387343 -19.30538065 10.46859818 -15.5625 9.125 C-12.28386244 7.68559815 -10.45427968 5.58014018 -8 3 C-4.85870079 0.23946433 -4.41910686 0 0 0 Z " fill="#C2D3D6" transform="translate(404,376)"/>
<path d="M0 0 C7.48066175 -0.76609187 13.67726835 1.07522145 20.75 3.375 C22.27173828 3.85066406 22.27173828 3.85066406 23.82421875 4.3359375 C26.55963418 5.19861779 29.28684706 6.06967166 32 7 C33.37333496 7.46720459 33.37333496 7.46720459 34.77441406 7.94384766 C35.8760791 8.46664307 35.8760791 8.46664307 37 9 C37.8125 11.625 37.8125 11.625 38 14 C39.32 14.33 40.64 14.66 42 15 C42 15.66 42 16.32 42 17 C42.66 17 43.32 17 44 17 C44.495 15.515 44.495 15.515 45 14 C50.445 15.485 50.445 15.485 56 17 C55.34 18.65 54.68 20.3 54 22 C52.58847656 21.98259766 52.58847656 21.98259766 51.1484375 21.96484375 C49.28058594 21.95130859 49.28058594 21.95130859 47.375 21.9375 C46.14523437 21.92589844 44.91546875 21.91429687 43.6484375 21.90234375 C40.04523126 21.90156088 40.04523126 21.90156088 36.7421875 22.6171875 C34 23 34 23 30.75 21.1875 C28 19 28 19 26 17 C26 15.68 26 14.36 26 13 C24.7934375 13.16757812 23.586875 13.33515625 22.34375 13.5078125 C20.72926556 13.71431632 19.11467632 13.92000191 17.5 14.125 C16.70851562 14.23714844 15.91703125 14.34929687 15.1015625 14.46484375 C8.90360658 15.22688751 3.70426694 14.85213347 -2 12 C-2.05422947 10.5629191 -2.09289723 9.12524538 -2.125 7.6875 C-2.14820313 6.88699219 -2.17140625 6.08648437 -2.1953125 5.26171875 C-2 3 -2 3 0 0 Z " fill="#10C7DA" transform="translate(214,281)"/>
<path d="M0 0 C8.26530804 -0.8265308 14.11082774 1.39744661 21 6 C24.76024016 9.46614317 26.72309763 12.44934672 27.625 17.5 C26.56794013 23.41953529 24.62716507 28.09603325 19.75 31.8125 C10.326901 37.67224224 1.00963605 38.29014272 -9.91015625 36.53125 C-15.74703123 35.01564722 -20.72178191 32.28870392 -25 28 C-26.21875 25.80859375 -26.21875 25.80859375 -27 24 C-26.46117187 24.2165625 -25.92234375 24.433125 -25.3671875 24.65625 C-18.58134441 26.95365142 -12.03815472 27.36121296 -4.9375 27.4375 C-4.01630371 27.45941406 -3.09510742 27.48132813 -2.14599609 27.50390625 C5.91422295 27.48095492 12.6128022 25.50652637 19.125 20.6875 C21.24304348 18.05167512 21.24304348 18.05167512 21.625 14.5 C20.82207492 10.00361957 19.63623611 8.72717708 16 6 C10.94495054 3.51019952 5.46277566 2.26814435 0 1 C0 0.67 0 0.34 0 0 Z " fill="#31373E" transform="translate(262,74)"/>
<path d="M0 0 C3.63186594 0.70770835 5.7334335 1.9445757 8.08203125 4.921875 C10.03900743 9.35213596 9.08673318 14.41225709 8 19 C6.5625 21.68359375 6.5625 21.68359375 5 24 C4.34 24.99 3.68 25.98 3 27 C2.79375 26.195625 2.5875 25.39125 2.375 24.5625 C1.92125 23.716875 1.4675 22.87125 1 22 C-0.98985949 21.61067967 -2.99199544 21.28112064 -5 21 C-7.51808164 19.0944247 -8.72609436 17.67305873 -9.9140625 14.75390625 C-10.04222364 10.64692437 -7.69055563 8.55986359 -5.0625 5.6875 C-4.58103516 5.13771484 -4.09957031 4.58792969 -3.60351562 4.02148438 C-2.41575918 2.66908843 -1.2095981 1.33289632 0 0 Z " fill="#04C6DA" transform="translate(130,234)"/>
<path d="M0 0 C3.70718433 0.81785983 5.13329673 2.33819937 7.16015625 5.4765625 C7.85291755 8.31631131 7.8654144 10.63832849 7.16015625 13.4765625 C4.60311277 17.11841231 2.93742916 18.25448452 -1.33984375 19.4765625 C-5.26618535 19.4765625 -6.80566709 18.90390383 -9.83984375 16.4765625 C-12.30464473 12.77936103 -12.62411105 9.76500284 -11.83984375 5.4765625 C-8.68903207 0.59788635 -5.54681603 -0.35188482 0 0 Z " fill="#F3D97F" transform="translate(421.83984375,190.5234375)"/>
<path d="M0 0 C5.17455456 -0.96246715 10.18101113 0.02297893 15 2 C10.46778388 11.14683617 10.46778388 11.14683617 8 14 C3.87688871 14.84145128 1.60461232 13.90695619 -2 12 C-2.05422947 10.5629191 -2.09289723 9.12524538 -2.125 7.6875 C-2.14820313 6.88699219 -2.17140625 6.08648437 -2.1953125 5.26171875 C-2 3 -2 3 0 0 Z " fill="#DEE6EA" transform="translate(214,281)"/>
<path d="M0 0 C2.69660017 2.69660017 2.69115383 4.70703567 3.0390625 8.4140625 C2.95334397 14.08862944 1.12427425 19.31358862 -2 24 C-5.875 23.125 -5.875 23.125 -7 22 C-7.72713587 16.44732609 -8.17635288 11.15566666 -5.4375 6.13671875 C-3.71937177 3.96481069 -1.96989306 1.94476688 0 0 Z " fill="#DAE5EA" transform="translate(289,378)"/>
<path d="M0 0 C0.99 0.33 1.98 0.66 3 1 C3.32712342 7.13053511 3.39366878 11.62669111 0 17 C-4.455 16.01 -4.455 16.01 -9 15 C-9 8.25257773 -4.42228951 4.53309859 0 0 Z " fill="#C4D3D6" transform="translate(382,347)"/>
<path d="M0 0 C7.22834521 -0.81488652 11.46206764 0.25137717 17.3828125 4.4921875 C18.18332031 5.23855469 18.18332031 5.23855469 19 6 C19 6.66 19 7.32 19 8 C14.25 9.125 14.25 9.125 12 8 C12 7.01 12 6.02 12 5 C7.71 4.34 3.42 3.68 -1 3 C-0.67 2.01 -0.34 1.02 0 0 Z " fill="#D1E3E9" transform="translate(122,319)"/>
<path d="M0 0 C1.875 0.3125 1.875 0.3125 4 1 C4.66 1.99 5.32 2.98 6 4 C5.01 4 4.02 4 3 4 C2.67 4.99 2.34 5.98 2 7 C1.4225 6.773125 0.845 6.54625 0.25 6.3125 C-2.12172477 5.73494807 -2.12172477 5.73494807 -4.25 7.4375 C-5.11625 8.2109375 -5.11625 8.2109375 -6 9 C-4.47291037 5.56404834 -2.40072955 2.88087546 0 0 Z " fill="#15C7D9" transform="translate(130,234)"/>
<path d="M0 0 C1.69458607 1.64474531 3.35614246 3.30530151 5 5 C5.56203125 5.5775 6.1240625 6.155 6.703125 6.75 C7.25484375 7.348125 7.8065625 7.94625 8.375 8.5625 C8.89835937 9.12066406 9.42171875 9.67882812 9.9609375 10.25390625 C11 12 11 12 10.6640625 14.21484375 C10.44492187 14.80394531 10.22578125 15.39304687 10 16 C9.34 16 8.68 16 8 16 C6.85121668 13.89739659 5.70588808 11.79303461 4.5625 9.6875 C4.23701172 9.09259766 3.91152344 8.49769531 3.57617188 7.88476562 C2.16262616 5.27626374 0.94051367 2.82154101 0 0 Z " fill="#B3D1D5" transform="translate(356,348)"/>
<path d="M0 0 C1.32 0.99 2.64 1.98 4 3 C3.67 4.32 3.34 5.64 3 7 C1.68 7.33 0.36 7.66 -1 8 C-1.99 6.68 -2.98 5.36 -4 4 C-3.01 3.67 -2.02 3.34 -1 3 C-0.67 2.01 -0.34 1.02 0 0 Z " fill="#C0D3D6" transform="translate(395,333)"/>
<path d="M0 0 C2.31 0.33 4.62 0.66 7 1 C7 3.31 7 5.62 7 8 C6.34 8 5.68 8 5 8 C4.67 7.34 4.34 6.68 4 6 C3.01 5.67 2.02 5.34 1 5 C0.67 3.35 0.34 1.7 0 0 Z " fill="#C1E0E6" transform="translate(251,290)"/>
<path d="M0 0 C0.99 0 1.98 0 3 0 C2.67 2.64 2.34 5.28 2 8 C0.68 8 -0.64 8 -2 8 C-2.125 5.125 -2.125 5.125 -2 2 C-1.34 1.34 -0.68 0.68 0 0 Z " fill="#C3D3D6" transform="translate(389,355)"/>
<path d="M0 0 C3.98175544 2.10148204 6.35039045 4.36905358 9 8 C7 9 7 9 5.125 8.4375 C2.21933718 6.47190456 0.80586293 3.96677482 -1 1 C-0.67 0.67 -0.34 0.34 0 0 Z " fill="#0EC7DA" transform="translate(293,307)"/>
<path d="M0 0 C4.5565527 3.71274665 6.57400393 8.79007402 9 14 C8.01 14.495 8.01 14.495 7 15 C5.82823482 12.87767021 4.66245215 10.75242209 3.5 8.625 C3.16613281 8.02171875 2.83226562 7.4184375 2.48828125 6.796875 C0 2.2265625 0 2.2265625 0 0 Z " fill="#26CADB" transform="translate(275,321)"/>
<path d="M0 0 C0 1.98 0 3.96 0 6 C-1.98 5.34 -3.96 4.68 -6 4 C-6 3.01 -6 2.02 -6 1 C-1.125 0 -1.125 0 0 0 Z " fill="#9ACED4" transform="translate(408,358)"/>
<path d="M0 0 C0.33 0 0.66 0 1 0 C1.3125 2.3125 1.3125 2.3125 1 5 C-1.375 6.875 -1.375 6.875 -4 8 C-4.66 7.67 -5.32 7.34 -6 7 C-5.02433888 5.83040013 -4.044375 4.66438823 -3.0625 3.5 C-2.51722656 2.8503125 -1.97195312 2.200625 -1.41015625 1.53125 C-0.71212891 0.77328125 -0.71212891 0.77328125 0 0 Z " fill="#60D2E1" transform="translate(121,222)"/>
<path d="M0 0 C1.65 0.33 3.3 0.66 5 1 C4.01 1.33 3.02 1.66 2 2 C1.67 2.99 1.34 3.98 1 5 C0.34 5 -0.32 5 -1 5 C-0.67 3.35 -0.34 1.7 0 0 Z " fill="#C4E0E6" transform="translate(131,236)"/>
</svg>
